<svg xmlns="http://www.w3.org/2000/svg" width="82.754" height="97.623" viewBox="0 0 82.754 97.623">
  <g id="ship" transform="translate(0 -0.002)">
    <g id="Path_4" data-name="Path 4" transform="translate(5.474 63.142)" fill="none">
      <path d="M53.49,20.9a14.959,14.959,0,0,0-8.767,5.085L44.7,26a8.8,8.8,0,0,1-8.515,3.344l.053.008V29.3c-.1,0-.212.008-.325.008s-.228,0-.342-.008h.016v.053a8.583,8.583,0,0,1-1.46.122,8.777,8.777,0,0,1-6.985-3.454L27.128,26a14.921,14.921,0,0,0-8.694-5.093l-.094-.016a13.945,13.945,0,0,0-2.982-.313,14.35,14.35,0,0,0-13.543,9.6l-.033.1L6.593,31.9A9.321,9.321,0,0,1,17.507,25.9l-.061-.012a9.967,9.967,0,0,1,6.017,3.629l.016.02a13.4,13.4,0,0,0,10.4,4.943q.275,0,.549-.012h-.024c.476,0,.976-.024,1.505-.057.521.033,1.025.057,1.505.057.155.008.342.012.525.012a13.388,13.388,0,0,0,10.382-4.918l.02-.024A9.951,9.951,0,0,1,54.316,25.9l.061-.008a9.155,9.155,0,0,1,2.067-.232,9.313,9.313,0,0,1,8.767,6.171l.02.065,4.809-1.607a14.369,14.369,0,0,0-16.651-9.377l.094-.016Z" stroke="none"/>
      <path d="M 15.35933685302734 22.58200454711914 C 10.76924133300781 22.58200454711914 6.607231140136719 25.12860298156738 4.482002258300781 29.0814380645752 L 5.529769897460938 29.43158149719238 C 7.524810791015625 25.91441535949707 11.27559280395508 23.65902519226074 15.37966918945312 23.65902519226074 C 16.22800445556641 23.65902519226074 17.0782470703125 23.75453758239746 17.90751266479492 23.94295501708984 C 20.73185348510742 24.49640655517578 23.25955581665039 26.03407287597656 25.02949142456055 28.27618408203125 L 25.033447265625 28.28112602233887 C 27.22316360473633 30.9515552520752 30.44749450683594 32.48278045654297 33.88150405883789 32.48278045654297 C 34.0342903137207 32.48278045654297 34.18915939331055 32.47933959960938 34.34181213378906 32.47254943847656 L 34.40629196166992 33.9218635559082 L 34.40629196166992 32.4705696105957 C 34.8629035949707 32.4705696105957 35.36132431030273 32.44369506835938 35.78865814208984 32.41739273071289 L 35.91246795654297 32.40977096557617 L 36.03625869750977 32.41751480102539 C 36.43152618408203 32.44221496582031 36.94563674926758 32.4705696105957 37.41670227050781 32.4705696105957 L 37.4693489074707 32.4705696105957 L 37.52192687988281 32.47333526611328 C 37.63581466674805 32.47933959960938 37.78873443603516 32.48278045654297 37.94149017333984 32.48278045654297 C 41.37534713745117 32.48278045654297 44.59563446044922 30.9569263458252 46.77663421630859 28.29645919799805 L 46.79083251953125 28.27931976318359 C 48.59006500244141 26.00881004333496 51.12996292114258 24.46736145019531 53.94591522216797 23.93758201599121 L 54.02040100097656 23.92477035522461 C 54.78555297851562 23.75342750549316 55.62076187133789 23.6630916595459 56.44332504272461 23.6630916595459 C 60.56786727905273 23.6630916595459 64.32773590087891 25.91876983642578 66.30470275878906 29.43181610107422 L 67.32914733886719 29.08946800231934 C 66.44101715087891 27.44696235656738 65.20193481445312 26.02796745300293 63.67838287353516 24.92219161987305 C 61.57265853881836 23.39389228820801 59.07784652709961 22.5860710144043 56.46366882324219 22.5860710144043 C 55.68451690673828 22.5860710144043 54.90805053710938 22.65836334228516 54.15106964111328 22.80117797851562 L 54.11521148681641 22.81917953491211 L 53.73073577880859 22.88602447509766 L 53.73059463500977 22.88530731201172 C 50.76837539672852 23.46328353881836 48.18784713745117 24.97358512878418 46.26310729980469 27.25652122497559 C 44.19053649902344 29.94064521789551 41.07264709472656 31.4789924621582 37.70146942138672 31.4789924621582 C 37.10344696044922 31.4789924621582 36.50223541259766 31.42914772033691 35.91326522827148 31.33078002929688 C 35.35311508178711 31.42777061462402 34.73698043823242 31.4789924621582 34.12965774536133 31.4789924621582 C 30.7545051574707 31.4789924621582 27.63923263549805 29.94444847106934 25.57725143432617 27.26778030395508 C 23.64279937744141 24.97928428649902 20.98159408569336 23.42165756225586 18.07940292358398 22.87972640991211 L 17.90647888183594 22.84741592407227 C 17.12688064575195 22.67378234863281 16.24608993530273 22.58200454711914 15.35933685302734 22.58200454711914 M 15.35933685302734 20.58200454711914 C 16.41704559326172 20.58200454711914 17.44628143310547 20.69591522216797 18.34127044677734 20.89524841308594 L 18.43483734130859 20.91152572631836 C 21.89273452758789 21.55429077148438 24.93162536621094 23.39308166503906 27.12841415405273 26.00481414794922 L 27.14468002319336 26.02514839172363 C 28.75159072875977 28.12431526184082 31.2819709777832 29.4789924621582 34.12965774536133 29.4789924621582 C 34.64630126953125 29.4789924621582 35.1507568359375 29.43423652648926 35.59011459350586 29.35694885253906 L 35.59011459350586 29.30464172363281 C 35.69860076904297 29.30851364135742 35.80707931518555 29.31219291687012 35.91555786132812 29.31219291687012 C 36.02946853637695 29.31219291687012 36.14336776733398 29.30812644958496 36.24101257324219 29.3040599822998 L 36.24101257324219 29.35694885253906 L 36.18812561035156 29.34880447387695 C 36.68037033081055 29.43423652648926 37.184814453125 29.4789924621582 37.70146942138672 29.4789924621582 C 40.54915618896484 29.4789924621582 43.07952499389648 28.12430381774902 44.70270538330078 26.00480270385742 L 44.72304534912109 25.98040390014648 C 46.88766860961914 23.40712547302246 49.90566253662109 21.5742301940918 53.43229675292969 20.90603256225586 C 53.41755676269531 20.90919494628906 53.40289306640625 20.91236877441406 53.38816833496094 20.91558074951172 L 53.48173522949219 20.89931488037109 L 53.48986053466797 20.89523696899414 C 53.47056579589844 20.8988151550293 53.45156097412109 20.90238189697266 53.43229675292969 20.90603256225586 C 54.40730285644531 20.69662857055664 55.42169952392578 20.5860710144043 56.46366882324219 20.5860710144043 C 62.72450256347656 20.5860710144043 68.0496826171875 24.59723663330078 70.03900146484375 30.2926139831543 L 65.23048400878906 31.89952659606934 L 65.21014404296875 31.83443641662598 C 63.92461395263672 28.23821449279785 60.48297119140625 25.6630916595459 56.44332504272461 25.6630916595459 C 55.7110595703125 25.6630916595459 54.99913787841797 25.74851417541504 54.37672424316406 25.89496994018555 L 54.31568908691406 25.90310287475586 C 51.91550445556641 26.35466003417969 49.81634521484375 27.67273712158203 48.34368133544922 29.54000282287598 L 48.32333374023438 29.56441497802734 C 45.86212539672852 32.56669235229492 42.12759399414062 34.48278045654297 37.94149017333984 34.48278045654297 C 37.75842666625977 34.48278045654297 37.57129287719727 34.47871398925781 37.41670227050781 34.4705696105957 C 36.93666839599609 34.4705696105957 36.43221282958984 34.44615936279297 35.91150283813477 34.41361236572266 C 35.38263702392578 34.44615936279297 34.88225936889648 34.4705696105957 34.40629196166992 34.4705696105957 L 34.43070220947266 34.4705696105957 C 34.24763488769531 34.47871398925781 34.06457138061523 34.48278045654297 33.88150405883789 34.48278045654297 C 29.69539260864258 34.48278045654297 25.95680236816406 32.56669235229492 23.47930145263672 29.54000282287598 L 23.46303558349609 29.5196704864502 C 22.01589202880859 27.68446159362793 19.93816757202148 26.37143325805664 17.49321746826172 25.89984703063965 C 16.8140983581543 25.74328804016113 16.10688400268555 25.65902519226074 15.37966918945312 25.65902519226074 C 11.34002685546875 25.65902519226074 7.902458190917969 28.2341480255127 6.592521667480469 31.89545822143555 L 1.784004211425781 30.28854751586914 L 1.816543579101562 30.18684768676758 C 3.7733154296875 24.59317016601562 9.098491668701172 20.58200454711914 15.35933685302734 20.58200454711914 Z M 17.44628143310547 25.89090347290039 C 17.46192932128906 25.89384651184082 17.47760009765625 25.8968334197998 17.49321746826172 25.89984703063965 C 17.4979362487793 25.90093421936035 17.50259017944336 25.90200996398926 17.50730133056641 25.90310287475586 L 17.44628143310547 25.89090347290039 Z M 35.57383728027344 29.3040599822998 L 35.59011459350586 29.30464172363281 C 35.58469009399414 29.30444717407227 35.57925796508789 29.30425262451172 35.57383728027344 29.3040599822998 Z" stroke="none" fill="#0065a0"/>
    </g>
    <g id="Path_5" data-name="Path 5" transform="translate(0 0)" fill="none">
      <path d="M12.981,48.1a3.75,3.75,0,0,1-.48-7.469h.02v.024l2.254.407a3.741,3.741,0,0,1,1.953,3.283v0a3.757,3.757,0,0,1-3.743,3.759Zm4.6-25.214,11.065-3.881H54.126l11.065,3.881v9.283l-23.8-3.905-23.8,3.905ZM33.924,5.063h14.93l2.4,8.873H31.528ZM68.011,41.053l2.254-.407v-.02A3.749,3.749,0,1,1,66.05,44.34v0a3.735,3.735,0,0,1,1.932-3.275l.02-.008Zm-47.263,38.9h.024a21.427,21.427,0,0,1,3.848.346l-.13-.02a18.713,18.713,0,0,1,10.825,6.179l.02.024a7.787,7.787,0,0,0,2.237,1.892l.041.02v-.073l3.674.325h.155l3.69-.37v.13A7.844,7.844,0,0,0,47.4,86.519l.012-.012a18.659,18.659,0,0,1,10.728-6.188l.114-.016a20.918,20.918,0,0,1,3.739-.342h.024a18.577,18.577,0,0,1,4.007.431l-.122-.024L82.754,35.073,70.236,33.015V19.305L56.628,14.529,52.723,0H30.031L26.125,14.529,12.518,19.305v13.71L0,35.073,16.854,80.368a18.162,18.162,0,0,1,3.885-.407h.024Z" stroke="none"/>
      <path d="M 41.35780715942383 86.64891052246094 L 44.71425628662109 86.31216430664062 C 45.14184951782227 86.00851440429688 45.52169036865234 85.65431976318359 45.84829330444336 85.25417327880859 L 45.91213226318359 85.17596435546875 L 45.94493103027344 85.14316558837891 C 49.01576232910156 81.60962677001953 53.21331405639648 79.19898223876953 57.77251815795898 78.35259246826172 L 57.85459899902344 78.339111328125 L 57.92585372924805 78.32892608642578 C 59.19781112670898 78.09243774414062 60.59991836547852 77.96525573730469 61.98393249511719 77.96100616455078 L 62.01449203491211 77.96099090576172 C 62.88418960571289 77.96099090576172 63.74946212768555 78.01456451416016 64.60169982910156 78.12079620361328 L 80.03215026855469 36.65259552001953 L 68.23617553710938 34.71280288696289 L 68.23617553710938 20.72291946411133 L 54.97070693969727 16.06712341308594 L 51.18954467773438 2.002002477645874 L 31.56423950195312 2.002002477645874 L 27.78307914733887 16.06712341308594 L 14.51762580871582 20.72291946411133 L 14.51762580871582 34.71280288696289 L 2.721636533737183 36.65259552001953 L 18.15142059326172 78.11898803710938 C 18.99308967590332 78.01479339599609 19.86651802062988 77.96099090576172 20.73930549621582 77.96099090576172 L 20.74693870544434 77.96099090576172 L 20.74743843078613 77.95692443847656 L 20.7718391418457 77.95692443847656 C 22.18765258789062 77.95692443847656 23.60321235656738 78.08419036865234 24.97918510437012 78.33517456054688 L 24.9785213470459 78.33909606933594 C 29.64776611328125 79.22878265380859 33.74292373657227 81.58340454101562 36.82863998413086 85.15415954589844 L 36.88946533203125 85.22693634033203 C 37.24605560302734 85.66689300537109 37.65682983398438 86.04708099365234 38.11476516723633 86.36159515380859 L 41.35780715942383 86.64891052246094 M 11.66993999481201 49.95275115966797 C 9.126553535461426 49.3575439453125 7.226505279541016 47.07018280029297 7.226505279541016 44.3443489074707 C 7.232652187347412 41.46406936645508 9.391145706176758 39.01629638671875 12.24735832214355 38.65061569213867 L 12.37383842468262 38.63441467285156 L 14.52169227600098 38.63441467285156 L 14.52169227600098 38.98750305175781 L 15.45423889160156 39.15584182739258 L 15.7420654296875 39.31475067138672 C 17.58394622802734 40.33161544799805 18.7281322479248 42.26048278808594 18.7281322479248 44.35268402099609 C 18.7281322479248 45.88516235351562 18.13005256652832 47.33077621459961 17.0440788269043 48.4232292175293 L 17.03989219665527 48.42742919921875 C 15.95989227294922 49.50744247436523 14.52281188964844 50.10557556152344 12.99335861206055 50.11161422729492 L 11.7518253326416 50.11652374267578 L 11.66993999481201 49.95275115966797 M 67.61818695068359 39.05344390869141 L 67.83186340332031 39.05344390869141 L 68.2646484375 38.97531890869141 L 68.2646484375 38.3570442199707 L 70.51592254638672 38.64212417602539 C 73.37908935546875 39.00470733642578 75.54750823974609 41.45079040527344 75.559814453125 44.33193588256836 L 75.55982208251953 44.34048080444336 C 75.55982208251953 47.51373672485352 72.97819519042969 50.09536361694336 69.80494689941406 50.09536361694336 C 66.63169097900391 50.09536361694336 64.05006408691406 47.51373672485352 64.05006408691406 44.3364143371582 C 64.05006408691406 42.24481582641602 65.18690490722656 40.31881713867188 67.01692962646484 39.31004333496094 L 67.12553405761719 39.25017547607422 L 67.61818695068359 39.05344390869141 M 41.38909149169922 30.29406547546387 L 15.58754539489746 34.52744293212891 L 15.5817985534668 21.47149658203125 L 28.30717277526855 17.00826835632324 L 54.46695709228516 17.00826835632324 L 67.19168853759766 21.47128295898438 L 67.19168853759766 34.52761459350586 L 41.38909149169922 30.29406547546387 M 32.39255905151367 3.062735795974731 L 50.38563919067383 3.062735795974731 L 53.86198425292969 15.93532276153564 L 28.91618537902832 15.93532276153564 L 32.39255905151367 3.062735795974731 M 41.44198608398438 88.6505126953125 L 41.28739929199219 88.6505126953125 L 37.6138801574707 88.32505798339844 L 37.6138801574707 88.39828491210938 L 37.57320022583008 88.37795257568359 C 36.71889114379883 87.89791870117188 35.96222686767578 87.25921630859375 35.33573150634766 86.48625946044922 L 35.31538391113281 86.46185302734375 C 32.59787750244141 83.31719207763672 28.85521125793457 81.08785247802734 24.49010467529297 80.28236389160156 L 24.62029266357422 80.30271148681641 C 23.37137222290039 80.07489776611328 22.08585166931152 79.95692443847656 20.7718391418457 79.95692443847656 L 20.74743843078613 79.95692443847656 L 20.76370620727539 79.96099090576172 L 20.73930549621582 79.96099090576172 C 19.36427879333496 79.96099090576172 18.02179908752441 80.10745239257812 16.85423851013184 80.36780548095703 L -1.243489577973378e-06 35.07329559326172 L 12.51762580871582 33.01482772827148 L 12.51762580871582 19.30525588989258 L 26.12549209594727 14.52928256988525 L 30.03089141845703 0.002002465073019266 L 52.72289276123047 0.002002465073019266 L 56.62829208374023 14.52928256988525 L 70.23617553710938 19.30525588989258 L 70.23617553710938 33.01482772827148 L 82.7537841796875 35.07329559326172 L 65.90027618408203 80.36586761474609 C 64.64787292480469 80.09841156005859 63.34646606445312 79.96099090576172 62.01449203491211 79.96099090576172 L 61.99007797241211 79.96099090576172 C 60.66793060302734 79.96505737304688 59.3742790222168 80.09117889404297 58.25148010253906 80.30271148681641 L 58.1375732421875 80.31899261474609 C 53.88637161254883 81.10820007324219 50.14370727539062 83.33753204345703 47.40991973876953 86.50659942626953 L 47.39772033691406 86.518798828125 C 46.78343963623047 87.27141571044922 46.02676010131836 87.91011047363281 45.13177108764648 88.41049957275391 L 45.13177108764648 88.28031921386719 L 41.44198608398438 88.6505126953125 Z M 12.50134563446045 40.63441467285156 C 10.65847873687744 40.870361328125 9.230571746826172 42.44067001342773 9.226505279541016 44.34861755371094 C 9.226505279541016 46.42334747314453 10.90663909912109 48.10349655151367 12.98138523101807 48.10349655151367 L 12.98545169830322 48.11162948608398 C 14.01469230651855 48.10756301879883 14.95035839080811 47.68854904174805 15.62566566467285 47.01322937011719 C 16.30503845214844 46.32980346679688 16.7281322479248 45.39005661010742 16.7281322479248 44.35268402099609 L 16.7281322479248 44.34861755371094 C 16.7281322479248 42.93697738647461 15.94705200195312 41.71247100830078 14.77542495727539 41.06562805175781 L 12.52169227600098 40.65882873535156 L 12.52169227600098 40.63441467285156 L 12.50134563446045 40.63441467285156 Z M 68.00276184082031 41.05344390869141 L 67.982421875 41.06156158447266 C 66.83114624023438 41.69618988037109 66.05006408691406 42.92477416992188 66.05006408691406 44.3364143371582 L 66.05006408691406 44.34048080444336 C 66.05006408691406 46.41522979736328 67.73020172119141 48.09536361694336 69.80494689941406 48.09536361694336 C 71.87969207763672 48.09536361694336 73.55982208251953 46.41522979736328 73.55982208251953 44.34048080444336 C 73.55168914794922 42.43660354614258 72.12785339355469 40.86222839355469 70.2646484375 40.62628173828125 L 70.2646484375 40.64661407470703 L 68.00276184082031 41.05344390869141 Z M 41.38909149169922 28.2673225402832 L 65.19168853759766 32.17272186279297 L 65.19168853759766 22.88925552368164 L 54.12639999389648 19.00826835632324 L 28.64773178100586 19.00826835632324 L 17.58242607116699 22.88925552368164 L 17.58650588989258 32.17272186279297 L 41.38909149169922 28.2673225402832 Z M 51.25022506713867 13.93532276153564 L 48.85410690307617 5.062736034393311 L 33.92409133911133 5.062736034393311 L 31.52795791625977 13.93532276153564 L 51.25022506713867 13.93532276153564 Z M 66.02159881591797 80.39221954345703 L 65.89955902099609 80.36780548095703 L 65.90027618408203 80.36586761474609 C 65.94075775146484 80.37451171875 65.98121643066406 80.38330078125 66.02159881591797 80.39221954345703 Z" stroke="none" fill="#0065a0"/>
    </g>
  </g>
</svg>
