<svg xmlns="http://www.w3.org/2000/svg" width="126.513" height="96.656" viewBox="0 0 126.513 96.656">
  <path id="water" d="M122.5,143.74a23.5,23.5,0,0,1-12.619-5.706,7.637,7.637,0,0,0-10.5,0c-8.26,7.574-23.363,7.574-31.754-.374-2.942-2.79-7.192-2.267-10.178.448-8.282,7.5-23.3,7.475-31.645-.424-2.942-2.79-7.257-2.217-10.265.5a23.034,23.034,0,0,1-12.575,5.581A3.739,3.739,0,0,0,0,147.677V155.7c0,2.267,1.656,4.186,3.64,3.986a35.911,35.911,0,0,0,17.3-6.453c12.314,8.621,29.858,8.5,41.845,0,12.314,8.621,29.858,8.5,41.845,0a36.928,36.928,0,0,0,17.239,6.428c1.983.2,3.64-1.719,3.64-3.986V147.8C125.534,145.808,124.27,143.964,122.5,143.74Zm0-35.878a23.5,23.5,0,0,1-12.619-5.706,7.637,7.637,0,0,0-10.5,0c-8.26,7.574-23.363,7.574-31.754-.374-2.942-2.791-7.192-2.267-10.178.448-8.282,7.5-23.3,7.475-31.645-.424-2.942-2.791-7.257-2.217-10.265.5a23.034,23.034,0,0,1-12.575,5.581A3.739,3.739,0,0,0,0,111.8v8.023c0,2.267,1.656,4.186,3.64,3.986a35.91,35.91,0,0,0,17.3-6.453c12.314,8.621,29.858,8.5,41.845,0,12.314,8.621,29.858,8.5,41.845,0a36.928,36.928,0,0,0,17.239,6.428c1.983.2,3.64-1.719,3.64-3.986v-7.873C125.534,109.93,124.27,108.086,122.5,107.862Zm0-35.878a23.685,23.685,0,0,1-12.619-5.706,7.637,7.637,0,0,0-10.5,0c-8.26,7.574-23.363,7.574-31.754-.374-2.942-2.791-7.192-2.267-10.178.448-8.282,7.5-23.3,7.475-31.645-.424-2.942-2.791-7.257-2.217-10.265.5A23.034,23.034,0,0,1,2.964,72.009,3.739,3.739,0,0,0,0,75.921v8.023c0,2.267,1.656,4.186,3.64,3.986a35.911,35.911,0,0,0,17.3-6.453c12.314,8.621,29.858,8.5,41.845,0,12.314,8.621,29.858,8.5,41.845,0a36.928,36.928,0,0,0,17.239,6.428c1.983.2,3.64-1.719,3.64-3.986V76.045c.022-1.993-1.242-3.837-3.008-4.061Z" transform="translate(0.5 -63.547)" fill="none" stroke="#0065a0" stroke-width="1" stroke-dasharray="5 10"/>
</svg>
