<svg xmlns="http://www.w3.org/2000/svg" xmlns:xlink="http://www.w3.org/1999/xlink" width="1607" height="1064.63" viewBox="0 0 1607 1064.63">
  <defs>
    <clipPath id="clip-path">
      <rect width="1607" height="1064.63" fill="none"/>
    </clipPath>
  </defs>
  <g id="Repeat_Grid_5" data-name="Repeat Grid 5" clip-path="url(#clip-path)">
    <g transform="translate(-378 -186.37)">
      <g id="Rectangle_178" data-name="Rectangle 178" transform="translate(378 448) rotate(-45)" fill="none" stroke="#0065a0" stroke-linecap="round" stroke-linejoin="round" stroke-width="2" stroke-dasharray="5 10">
        <rect width="370" height="370" rx="20" stroke="none"/>
        <rect x="1" y="1" width="368" height="368" rx="19" fill="none"/>
      </g>
    </g>
    <g transform="translate(166 -186.37)">
      <g id="Rectangle_178-2" data-name="Rectangle 178" transform="translate(378 448) rotate(-45)" fill="none" stroke="#0065a0" stroke-linecap="round" stroke-linejoin="round" stroke-width="2" stroke-dasharray="5 10">
        <rect width="370" height="370" rx="20" stroke="none"/>
        <rect x="1" y="1" width="368" height="368" rx="19" fill="none"/>
      </g>
    </g>
    <g transform="translate(710 -186.37)">
      <g id="Rectangle_178-3" data-name="Rectangle 178" transform="translate(378 448) rotate(-45)" fill="none" stroke="#0065a0" stroke-linecap="round" stroke-linejoin="round" stroke-width="2" stroke-dasharray="5 10">
        <rect width="370" height="370" rx="20" stroke="none"/>
        <rect x="1" y="1" width="368" height="368" rx="19" fill="none"/>
      </g>
    </g>
    <g transform="translate(-378 357.63)">
      <g id="Rectangle_178-4" data-name="Rectangle 178" transform="translate(378 448) rotate(-45)" fill="none" stroke="#0065a0" stroke-linecap="round" stroke-linejoin="round" stroke-width="2" stroke-dasharray="5 10">
        <rect width="370" height="370" rx="20" stroke="none"/>
        <rect x="1" y="1" width="368" height="368" rx="19" fill="none"/>
      </g>
    </g>
    <g transform="translate(166 357.63)">
      <g id="Rectangle_178-5" data-name="Rectangle 178" transform="translate(378 448) rotate(-45)" fill="none" stroke="#0065a0" stroke-linecap="round" stroke-linejoin="round" stroke-width="2" stroke-dasharray="5 10">
        <rect width="370" height="370" rx="20" stroke="none"/>
        <rect x="1" y="1" width="368" height="368" rx="19" fill="none"/>
      </g>
    </g>
    <g transform="translate(710 357.63)">
      <g id="Rectangle_178-6" data-name="Rectangle 178" transform="translate(378 448) rotate(-45)" fill="none" stroke="#0065a0" stroke-linecap="round" stroke-linejoin="round" stroke-width="2" stroke-dasharray="5 10">
        <rect width="370" height="370" rx="20" stroke="none"/>
        <rect x="1" y="1" width="368" height="368" rx="19" fill="none"/>
      </g>
    </g>
  </g>
</svg>
