<svg xmlns="http://www.w3.org/2000/svg" width="1800" height="1800" viewBox="0 0 1800 1800">
  <g id="Group_222" data-name="Group 222" transform="translate(-9595 734)">
    <g id="Ellipse_8" data-name="Ellipse 8" transform="translate(10445 116)" fill="none" stroke="rgba(0,101,160,0.25)" stroke-width="1">
      <circle cx="50" cy="50" r="50" stroke="none"/>
      <circle cx="50" cy="50" r="49.5" fill="none"/>
    </g>
    <g id="Ellipse_9" data-name="Ellipse 9" transform="translate(10445 116)" fill="none" stroke="rgba(0,101,160,0.25)" stroke-width="1">
      <circle cx="50" cy="50" r="50" stroke="none"/>
      <circle cx="50" cy="50" r="49.5" fill="none"/>
    </g>
    <g id="Ellipse_9-2" data-name="Ellipse 9" transform="translate(10395 66)" fill="none" stroke="rgba(0,101,160,0.25)" stroke-width="1">
      <circle cx="100" cy="100" r="100" stroke="none"/>
      <circle cx="100" cy="100" r="99.5" fill="none"/>
    </g>
    <g id="Ellipse_9-3" data-name="Ellipse 9" transform="translate(10170 -159)" fill="none" stroke="rgba(0,101,160,0.25)" stroke-width="1">
      <circle cx="325" cy="325" r="325" stroke="none"/>
      <circle cx="325" cy="325" r="324.5" fill="none"/>
    </g>
    <g id="Ellipse_9-4" data-name="Ellipse 9" transform="translate(9995 -334)" fill="none" stroke="rgba(0,101,160,0.25)" stroke-width="1">
      <circle cx="500" cy="500" r="500" stroke="none"/>
      <circle cx="500" cy="500" r="499.5" fill="none"/>
    </g>
    <g id="Ellipse_10" data-name="Ellipse 10" transform="translate(9795 -534)" fill="none" stroke="rgba(0,101,160,0.25)" stroke-width="1">
      <circle cx="700" cy="700" r="700" stroke="none"/>
      <circle cx="700" cy="700" r="699.5" fill="none"/>
    </g>
    <g id="Ellipse_12" data-name="Ellipse 12" transform="translate(9595 -734)" fill="none" stroke="rgba(0,101,160,0.25)" stroke-width="1">
      <circle cx="900" cy="900" r="900" stroke="none"/>
      <circle cx="900" cy="900" r="899.5" fill="none"/>
    </g>
    <g id="Ellipse_11" data-name="Ellipse 11" transform="translate(9795 -534)" fill="none" stroke="rgba(0,101,160,0.25)" stroke-width="1">
      <circle cx="700" cy="700" r="700" stroke="none"/>
      <circle cx="700" cy="700" r="699.5" fill="none"/>
    </g>
    <g id="Ellipse_13" data-name="Ellipse 13" transform="translate(9595 -734)" fill="none" stroke="rgba(0,101,160,0.25)" stroke-width="1">
      <circle cx="900" cy="900" r="900" stroke="none"/>
      <circle cx="900" cy="900" r="899.5" fill="none"/>
    </g>
    <g id="Ellipse_9-5" data-name="Ellipse 9" transform="translate(10330 1)" fill="none" stroke="rgba(0,101,160,0.25)" stroke-width="1">
      <circle cx="165" cy="165" r="165" stroke="none"/>
      <circle cx="165" cy="165" r="164.5" fill="none"/>
    </g>
    <g id="Ellipse_9-6" data-name="Ellipse 9" transform="translate(10270 -59)" fill="none" stroke="rgba(0,101,160,0.25)" stroke-width="1">
      <circle cx="225" cy="225" r="225" stroke="none"/>
      <circle cx="225" cy="225" r="224.5" fill="none"/>
    </g>
    <g id="Ellipse_9-7" data-name="Ellipse 9" transform="translate(10095 -234)" fill="none" stroke="rgba(0,101,160,0.25)" stroke-width="1">
      <circle cx="400" cy="400" r="400" stroke="none"/>
      <circle cx="400" cy="400" r="399.5" fill="none"/>
    </g>
  </g>
</svg>
